<svg width="50" height="50" viewBox="0 0 50 50" fill="none" xmlns="http://www.w3.org/2000/svg">
<path d="M18.8453 20.6584C20.7424 20.6584 22.2804 19.1205 22.2804 17.2233C22.2804 15.3261 20.7424 13.7882 18.8453 13.7882C16.9481 13.7882 15.4102 15.3261 15.4102 17.2233C15.4102 19.1205 16.9481 20.6584 18.8453 20.6584Z" fill="#B32B38"/>
<path d="M47.042 29.8664C45.4198 28.3397 43.3683 27.3378 41.1259 27.0515V9.5897C41.1259 7.72901 40.3626 6.05917 39.1698 4.81871C37.9294 3.57825 36.2595 2.8626 34.3989 2.8626H6.7271C4.86641 2.8626 3.19656 3.62596 1.95611 4.81871C0.715649 6.05917 0 7.72901 0 9.5897V31.584V33.6355V38.0725C0 39.9332 0.763359 41.6031 1.95611 42.8435C3.19656 44.084 4.86641 44.7996 6.7271 44.7996H33.4924C35.2576 46.2309 37.4523 47.1374 39.8855 47.1374C42.7004 47.1374 45.229 45.9924 47.042 44.1794C48.855 42.3664 50 39.8378 50 37.0229C50 34.208 48.855 31.6794 47.042 29.8664ZM2.52863 9.5897C2.52863 8.44466 3.00573 7.39504 3.76908 6.6794C4.53244 5.91604 5.58206 5.43894 6.7271 5.43894H34.3989C35.5439 5.43894 36.5935 5.91604 37.3569 6.6794C38.1202 7.44275 38.5973 8.49237 38.5973 9.63741V24.5229L31.5363 17.4618C31.0592 16.9847 30.2481 16.937 29.7233 17.4618L19.084 28.1489L11.8798 20.897C11.4027 20.4199 10.5916 20.3721 10.0668 20.897L2.52863 28.5305V9.5897ZM6.67939 42.3187V42.271C5.53435 42.271 4.48473 41.7939 3.72137 41.0305C3.00573 40.2672 2.52863 39.2176 2.52863 38.0725V33.6355V32.1088L10.9733 23.6164L18.1775 30.8206C18.6546 31.2977 19.4656 31.2977 19.9905 30.8206L30.6298 20.1336L37.5954 27.147C37.4523 27.1947 37.3092 27.2424 37.166 27.2901C36.9752 27.3378 36.7843 27.3855 36.5458 27.4809C36.355 27.5286 36.1641 27.6241 35.9733 27.6718C35.8302 27.7195 35.7347 27.7672 35.5916 27.8626C35.4008 27.958 35.2576 28.0057 35.1145 28.1012C34.8759 28.2443 34.6374 28.3874 34.3989 28.5305C34.2557 28.626 34.1603 28.6737 34.0172 28.7691C33.9218 28.8168 33.874 28.8645 33.7786 28.9122C33.3492 29.1985 32.9676 29.5324 32.6336 29.9141C30.8206 31.7271 29.6756 34.2557 29.6756 37.0706C29.6756 37.7863 29.771 38.4542 29.9141 39.1699C29.9618 39.3607 30.0095 39.5038 30.0573 39.6947C30.2004 40.1718 30.2958 40.6489 30.5343 41.126V41.1737C30.7252 41.5554 30.916 41.9847 31.1546 42.3187H6.67939ZM45.1813 42.3664C43.7977 43.75 41.937 44.5611 39.8378 44.5611C37.834 44.5611 35.9733 43.75 34.6374 42.4618C34.4466 42.271 34.2557 42.0324 34.0649 41.8416C33.9218 41.6985 33.7786 41.5076 33.6355 41.3168C33.4447 41.0782 33.3015 40.792 33.1584 40.5057C33.063 40.3149 32.9676 40.1718 32.8721 39.9809C32.7767 39.7424 32.6813 39.4561 32.6336 39.1699C32.5859 38.979 32.4905 38.7405 32.4427 38.5496C32.3473 38.0725 32.2996 37.5477 32.2996 37.0229C32.2996 34.9237 33.1584 33.063 34.4943 31.6794C35.8302 30.2958 37.7385 29.4847 39.8378 29.4847C41.937 29.4847 43.7977 30.3435 45.1813 31.6794C46.5649 33.063 47.376 34.9237 47.376 37.0229C47.376 39.1221 46.5172 40.9828 45.1813 42.3664Z" fill="#B32B38"/>
<path d="M45.056 38.4363H34.6195C34.208 38.4363 33.874 38.1023 33.874 37.6908C33.874 37.2793 34.208 36.9454 34.6195 36.9454H45.056C45.4675 36.9454 45.8015 37.2793 45.8015 37.6908C45.8015 38.1023 45.4675 38.4363 45.056 38.4363Z" fill="#B32B38"/>
<path d="M39.8378 43.6546C39.4263 43.6546 39.0923 43.3206 39.0923 42.9091V32.4726C39.0923 32.0611 39.4263 31.7271 39.8378 31.7271C40.2493 31.7271 40.5832 32.0611 40.5832 32.4726V42.9091C40.5832 43.3206 40.2493 43.6546 39.8378 43.6546Z" fill="#B32B38"/>
</svg>
