<svg width="60" height="60" viewBox="0 0 60 60" fill="none" xmlns="http://www.w3.org/2000/svg">
<g clip-path="url(#clip0)">
<path d="M41.7222 31.7081V27.8499C41.7222 25.6808 40.4196 25.0866 36.1985 23.5674C37.9812 19.5014 38.4466 18.1578 36.9244 16.6532L34.1406 13.9367C33.5991 13.4039 32.8204 13.0878 32.0505 13.0878C31.5324 13.0878 30.9967 13.0878 27.1591 14.7973C25.4789 10.6523 24.8466 9.37601 22.7477 9.37601H18.8106C16.7381 9.37601 16.1146 10.5294 14.4899 14.8236C10.5879 13.2049 10.0405 13.2049 9.55164 13.2049C8.78177 13.2049 8.00312 13.521 7.46743 14.0479L4.67776 16.7761C3.12046 18.3071 3.65615 19.7414 5.48861 23.6405C1.18847 25.3149 0 25.8945 0 28.008V31.8691C0 34.0382 1.30263 34.6353 5.52081 36.1546C3.74104 40.2147 3.28146 41.5583 4.79485 43.06L7.56989 45.7735C8.1085 46.3122 8.89594 46.6342 9.66873 46.6342C10.1839 46.6342 10.7196 46.6342 14.5602 44.9217C16.2434 49.0667 16.8727 50.3459 18.9745 50.3459H22.9146C24.9841 50.3459 25.6106 49.1896 27.2381 44.8924C31.1431 46.52 31.6876 46.52 32.1735 46.52C32.9404 46.52 33.7191 46.2038 34.2577 45.6769L37.0649 42.9312C38.6047 41.4002 38.0719 39.9659 36.2395 36.0814C40.4284 34.4451 41.7222 33.8186 41.7222 31.7081ZM32.0476 43.0951C31.6759 42.9956 30.6279 42.6502 27.8294 41.4675L27.1854 41.1953L24.6153 42.2345L24.3519 42.9282C24.0416 43.7654 23.1575 46.1219 22.6892 46.9532L19.1882 46.9503C18.711 46.1482 17.7802 43.8415 17.4025 42.9078L17.1332 42.2433L14.5631 41.207L13.9015 41.5056C11.1294 42.7614 10.1137 43.1156 9.7946 43.2122L7.32985 40.8001C7.57867 39.8868 8.57394 37.627 8.9779 36.7137L9.27355 36.0463L8.20803 33.523L7.50842 33.2712C6.56291 32.9346 4.22696 32.0974 3.38976 31.6437V28.2305C4.20647 27.7709 6.4868 26.8869 7.52891 26.4829L8.19925 26.2224L9.26477 23.6962L8.93984 23.0141C8.55637 22.2091 7.49085 19.9522 7.21569 19.0301L9.67459 16.6239C10.0463 16.7234 11.0972 17.063 13.9015 18.2456L14.5455 18.5208L17.1098 17.4816L17.3703 16.7849C17.6806 15.9477 18.5647 13.5942 19.0301 12.7599H22.5311C23.0082 13.5649 23.9391 15.8716 24.3167 16.8054L24.586 17.4699L27.1532 18.5091L27.8177 18.2076C30.5928 16.9518 31.6056 16.5976 31.9247 16.501L34.3924 18.913C34.1435 19.8234 33.1453 22.0832 32.7443 22.9995L32.4487 23.6698L33.5171 26.199L34.2167 26.4478C35.1593 26.7873 37.4894 27.6216 38.3324 28.0724L38.3295 31.4768C37.5011 31.951 35.1447 32.8643 34.1904 33.2361L33.52 33.4966L32.4604 36.0258L32.7824 36.7049C33.1629 37.507 34.2314 39.7639 34.5094 40.683L32.0476 43.0951Z" fill="#B32B38"/>
<path d="M20.8625 23.7606C17.4288 23.7606 14.6362 26.4975 14.6362 29.861C14.6362 33.2244 17.4288 35.9643 20.8625 35.9643C24.2962 35.9643 27.0888 33.2244 27.0888 29.861C27.0888 26.4975 24.2962 23.7606 20.8625 23.7606ZM20.8625 32.5775C19.2964 32.5775 18.0201 31.3568 18.0201 29.861C18.0201 28.3651 19.2964 27.1474 20.8625 27.1474C22.4286 27.1474 23.7019 28.3651 23.7019 29.861C23.7019 31.3568 22.4286 32.5775 20.8625 32.5775Z" fill="#B32B38"/>
<path d="M57.4738 38.3676C58.2905 36.5058 58.5042 35.8911 57.8075 35.2032L56.5283 33.9591C56.2824 33.7132 55.9253 33.5698 55.574 33.5698C55.3369 33.5698 55.0939 33.5698 53.3347 34.3543C52.5648 32.4574 52.2779 31.872 51.3178 31.872H49.5175C48.5691 31.872 48.2822 32.4018 47.5387 34.366C45.756 33.6254 45.5042 33.6254 45.2818 33.6254C44.9305 33.6254 44.5734 33.7718 44.3275 34.0118L43.0483 35.2617C42.337 35.9614 42.5828 36.62 43.42 38.4027C41.45 39.1696 40.9114 39.436 40.9114 40.402V42.1701C40.9114 43.1624 41.5056 43.4376 43.4376 44.1313C42.6238 45.9901 42.4101 46.6049 43.1039 47.2928L44.3743 48.5339C44.6231 48.7798 44.9832 48.9262 45.3374 48.9262C45.5716 48.9262 45.8175 48.9262 47.5767 48.1417C48.3466 50.0385 48.6335 50.624 49.5936 50.624H51.3968C52.3423 50.624 52.6292 50.0971 53.3756 48.13C55.1613 48.8735 55.4101 48.8735 55.6326 48.8735C55.9838 48.8735 56.341 48.7271 56.5868 48.4871L57.869 47.2284C58.5744 46.5288 58.3286 45.8731 57.4914 44.0962C59.4087 43.3468 60 43.06 60 42.094V40.3259C60 39.3336 59.4058 39.0613 57.4738 38.3676ZM58.4515 41.9886C58.0739 42.2052 56.9937 42.6238 56.5576 42.7907L56.2531 42.9107L55.7672 44.0669L55.9165 44.3802C56.0921 44.7461 56.581 45.7794 56.7069 46.2009L55.5799 47.3016C55.4072 47.2547 54.9271 47.0996 53.6479 46.558L53.3522 46.4322L52.1784 46.9093L52.0584 47.2254C51.9149 47.6089 51.511 48.6861 51.2973 49.0667H49.6931C49.4765 48.6979 49.0462 47.644 48.8764 47.2167L48.7535 46.9122L47.5797 46.4351L47.2752 46.5727C46.0048 47.1464 45.5394 47.3074 45.393 47.3542L44.266 46.2477C44.3802 45.8321 44.8339 44.7988 45.0183 44.3802L45.153 44.0728L44.667 42.9195L44.348 42.8024C43.9177 42.6472 42.8463 42.2637 42.4628 42.0588V40.4957C42.8375 40.2878 43.8796 39.881 44.3538 39.6965L44.6612 39.5795L45.1471 38.4203L45.0008 38.11C44.8222 37.7441 44.3363 36.7107 44.2104 36.2892L45.3374 35.1886C45.5072 35.2325 45.9872 35.3876 47.2694 35.9321L47.565 36.058L48.7389 35.5837L48.856 35.2647C49.0023 34.8812 49.4034 33.804 49.617 33.4234H51.2212C51.4378 33.7923 51.8652 34.849 52.0379 35.2764L52.1608 35.5808L53.3347 36.058L53.6391 35.9204C54.9095 35.3437 55.375 35.1827 55.5213 35.1388L56.6512 36.2424C56.5342 36.658 56.0804 37.6914 55.8931 38.1129L55.7584 38.4173L56.2473 39.5765L56.5663 39.6907C56.9996 39.8458 58.068 40.2293 58.4515 40.4342C58.4515 40.4342 58.4515 41.9886 58.4515 41.9886Z" fill="#B32B38"/>
<path d="M50.4542 38.4554C48.8852 38.4554 47.606 39.7083 47.606 41.2451C47.606 42.7848 48.8852 44.0377 50.4542 44.0377C52.0261 44.0377 53.3053 42.7848 53.3053 41.2451C53.3053 39.7083 52.0261 38.4554 50.4542 38.4554ZM50.4542 42.4892C49.737 42.4892 49.1545 41.933 49.1545 41.2451C49.1545 40.563 49.737 40.0039 50.4542 40.0039C51.1714 40.0039 51.7539 40.5601 51.7539 41.2451C51.7568 41.933 51.1714 42.4892 50.4542 42.4892Z" fill="#B32B38"/>
</g>
<defs>
<clipPath id="clip0">
<rect width="60" height="60" fill="white"/>
</clipPath>
</defs>
</svg>
